<svg width="77" height="24" viewBox="0 0 77 24" fill="none" xmlns="http://www.w3.org/2000/svg">
<rect width="77" height="24" rx="3" fill="black" fill-opacity="0.66"/>
<path d="M18.324 11.983H16.764V17.352H15.477V6.25H16.764V10.748H18.324V11.983ZM7.118 6.653H13.163V9.331C13.163 10.7957 12.9203 12.0827 12.435 13.192C11.9497 14.2927 11.252 15.1463 10.342 15.753C9.432 16.3597 8.35733 16.663 7.118 16.663V15.441C8.11467 15.441 8.964 15.194 9.666 14.7C10.3767 14.1973 10.9183 13.491 11.291 12.581C11.6637 11.671 11.85 10.5963 11.85 9.357V7.836H7.118V6.653ZM24.4979 9.227C23.9432 9.71233 23.2455 10.0937 22.4049 10.371C21.5642 10.6397 20.6932 10.7827 19.7919 10.8V9.721C20.4419 9.70367 21.0875 9.604 21.7289 9.422C22.3702 9.23133 22.9205 8.967 23.3799 8.629C23.8479 8.291 24.1512 7.89667 24.2899 7.446H19.9739V6.38H29.5419V7.446H25.5899C25.5292 7.77533 25.4122 8.083 25.2389 8.369L29.8409 9.786L29.4639 10.813L24.4979 9.227ZM30.3089 11.788V12.854H19.2199V11.788H24.1209V10.345H25.3949V11.788H30.3089ZM19.8959 13.946H29.5289V17.365H28.2289V15.012H19.8959V13.946ZM42.1768 6.25V13.192H40.9028V10.644H38.8748V9.552H40.9028V8.551H38.8748V7.459H40.9028V6.25H42.1768ZM36.8208 9.084V7.602H32.1538V6.523H38.0948V10.137H33.4538V11.645H35.9498C36.7211 11.645 37.4144 11.6103 38.0298 11.541C38.6451 11.463 39.1174 11.3547 39.4468 11.216V12.295C39.1174 12.425 38.6321 12.529 37.9908 12.607C37.3494 12.685 36.6388 12.724 35.8588 12.724H32.1798V9.084H36.8208ZM32.6348 13.803H42.1768V17.352H40.8638V14.908H32.6348V13.803ZM53.1122 10.358C52.5922 10.9387 51.9075 11.4023 51.0582 11.749C50.2175 12.0957 49.2729 12.2993 48.2242 12.36V11.177C49.3855 11.0903 50.3649 10.8 51.1622 10.306C51.9682 9.80333 52.4839 9.17067 52.7092 8.408H48.5102V7.238H52.7222V5.977H54.0482V7.238H58.3122V8.408H54.1002C54.0395 8.71133 53.9312 9.03633 53.7752 9.383L58.6112 11.164L58.1692 12.282L53.1122 10.358ZM58.9622 14.622H54.0612V17.612H52.7482V14.622H47.8732V13.426H58.9622V14.622ZM71.9871 11.983H70.4271V17.352H69.1401V6.25H70.4271V10.748H71.9871V11.983ZM60.7811 6.653H66.8261V9.331C66.8261 10.7957 66.5834 12.0827 66.0981 13.192C65.6128 14.2927 64.9151 15.1463 64.0051 15.753C63.0951 16.3597 62.0204 16.663 60.7811 16.663V15.441C61.7778 15.441 62.6271 15.194 63.3291 14.7C64.0398 14.1973 64.5814 13.491 64.9541 12.581C65.3268 11.671 65.5131 10.5963 65.5131 9.357V7.836H60.7811V6.653Z" fill="white"/>
</svg>
